<svg width="625" height="252" viewBox="0 0 625 252" fill="none" xmlns="http://www.w3.org/2000/svg">
<path fill-rule="evenodd" clip-rule="evenodd" d="M115.841 200.774C117.542 195.324 118.981 190.62 119.728 188.13C124.238 172.968 140.009 136.668 142.374 107.727C144.186 85.6479 138.224 67.7744 117.874 62.7666C99.3782 58.2152 80.7023 69.4622 64.1568 89.7289C28.5482 133.347 1.54447 218.233 0.00890246 245.984C-0.157105 249.013 2.15315 251.6 5.18279 251.766C8.1986 251.932 10.7854 249.622 10.9514 246.592C12.4317 219.962 38.4673 138.535 72.6511 96.6598C86.0147 80.2942 100.319 69.7388 115.259 73.4186C130.006 77.0431 132.76 90.8216 131.445 106.828C129.149 134.994 113.613 170.242 109.214 185.003C106.461 194.258 94.9652 229.258 94.7023 232.495C94.3703 236.549 97.2617 237.904 98.2439 238.278C99.0048 238.568 102.892 239.772 105.313 235.414C139.87 173.3 235.892 101.903 338.18 73.4463C439.569 45.2389 547.433 59.4187 607.03 168.887C608.482 171.543 611.816 172.525 614.472 171.086C617.128 169.634 618.111 166.3 616.658 163.644C554.211 48.9463 441.464 33.3276 335.247 62.877C245.728 87.7781 161.078 144.913 115.841 200.774Z" fill="#0CDA6E"/>
<path fill-rule="evenodd" clip-rule="evenodd" d="M607.978 161.001C596.011 156.104 584.252 150.847 571.898 146.876C538.987 136.293 502.549 132.268 468.393 138.355C465.405 138.894 463.426 141.744 463.952 144.718C464.492 147.706 467.341 149.685 470.316 149.159C502.729 143.362 537.313 147.277 568.537 157.321C582.675 161.872 596.039 168.139 609.831 173.576C610.523 173.839 616.444 176.384 617.841 176.578C621.092 177.048 622.739 175.167 623.389 174.199C623.942 173.396 624.413 172.303 624.454 170.837C624.482 169.633 623.997 167.337 622.697 164.404C618.561 154.997 605.764 134.44 604.021 130.843C584.031 89.6175 572.355 47.9081 558.964 4.30347C558.064 1.41217 554.993 -0.220413 552.102 0.664961C549.211 1.55033 547.592 4.62175 548.477 7.51305C562.035 51.6711 573.918 93.8922 594.157 135.615C595.347 138.092 602.693 151.442 607.978 161.001Z" fill="#0CDA6E"/>
</svg>
