<svg width="200" height="80" viewBox="0 0 200 80" fill="none" xmlns="http://www.w3.org/2000/svg">
<path d="M142.561 55.1113L146.913 53.7449V17.7125L142.561 19.0789V55.1113ZM92.3584 33.249C95.0912 33.249 97.6216 34.4635 99.241 36.4878L101.012 32.3886C98.6843 30.1619 95.5973 29.0992 92.3584 29.0992C84.8685 29.0992 79.7066 35.0202 79.7572 41.5486C79.8078 48.6336 85.3746 54.4028 92.3584 54.4028C95.9009 54.4028 98.5831 53.3401 100.607 51.8724V46.8623C98.4819 48.9878 95.3949 50.253 92.7127 50.253C88.6641 50.253 84.1094 46.9635 84.1094 41.5486C84.1094 36.5384 88.0568 33.249 92.3584 33.249ZM121.306 29.0992C113.816 29.0992 109.464 35.0202 109.464 41.5486C109.464 48.6336 115.081 54.4028 122.065 54.4028C125.607 54.4028 128.29 53.3401 130.314 51.8724V46.8623C128.188 48.9878 125.101 50.253 122.419 50.253C118.826 50.253 114.879 48.0263 114.069 43.3198H133.148V41.6498C133.148 34.666 128.543 29.0992 121.306 29.0992ZM168.32 29.0992C161.336 29.0992 155.668 34.7672 155.668 41.751C155.668 48.7348 161.336 54.4028 168.32 54.4028C175.304 54.4028 180.972 48.7348 180.972 41.751C180.972 34.7672 175.304 29.0992 168.32 29.0992ZM121.356 33.249C124.747 33.249 128.34 35.3745 128.644 39.4737H114.069C114.373 35.3745 117.966 33.249 121.356 33.249ZM168.32 50.253C166.638 50.253 164.995 49.7544 163.596 48.8202C162.198 47.8859 161.109 46.5581 160.465 45.0046C159.822 43.451 159.653 41.7416 159.981 40.0923C160.309 38.4431 161.119 36.9282 162.308 35.7391C163.497 34.5501 165.012 33.7404 166.661 33.4123C168.311 33.0843 170.02 33.2526 171.574 33.8961C173.127 34.5396 174.455 35.6294 175.389 37.0275C176.323 38.4257 176.822 40.0694 176.822 41.751C176.824 42.868 176.605 43.9744 176.179 45.0068C175.752 46.0391 175.126 46.9771 174.336 47.767C173.546 48.5568 172.608 49.183 171.576 49.6096C170.543 50.0362 169.437 50.2549 168.32 50.253Z" fill="#2E3338"/>
<path d="M38.0061 55.6681C45.6923 55.6681 51.9231 49.4373 51.9231 41.7511C51.9231 34.0648 45.6923 27.834 38.0061 27.834C30.3198 27.834 24.089 34.0648 24.089 41.7511C24.089 49.4373 30.3198 55.6681 38.0061 55.6681ZM38.0061 60.7288C27.5253 60.7288 19.0283 52.2318 19.0283 41.7511C19.0283 31.2703 27.5253 22.7733 38.0061 22.7733C48.4868 22.7733 56.9838 31.2703 56.9838 41.7511C56.9838 52.2318 48.4868 60.7288 38.0061 60.7288Z" fill="#FBCC5C"/>
<path d="M48.1276 45.5466C55.8139 45.5466 62.0446 39.3158 62.0446 31.6296C62.0446 23.9433 55.8139 17.7126 48.1276 17.7126C40.4414 17.7126 34.2106 23.9433 34.2106 31.6296C34.2106 39.3158 40.4414 45.5466 48.1276 45.5466ZM48.1276 50.6073C37.6469 50.6073 29.1499 42.1103 29.1499 31.6296C29.1499 21.1488 37.6469 12.6519 48.1276 12.6519C58.6084 12.6519 67.1054 21.1488 67.1054 31.6296C67.1054 42.1103 58.6084 50.6073 48.1276 50.6073Z" fill="#35D07F"/>
<path d="M48.75 50.5972C50.0653 49.0036 51.0079 47.1362 51.5091 45.1316C53.5136 44.6305 55.381 43.688 56.9747 42.373C56.902 44.694 56.4021 46.9818 55.5 49.1215C53.36 50.0241 51.0719 50.5243 48.7505 50.5972H48.75ZM34.625 28.248C32.6205 28.7491 30.7532 29.6916 29.1594 31.0066C29.2321 28.6856 29.732 26.3979 30.6341 24.2581C32.7742 23.3559 35.0623 22.856 37.3836 22.7834C36.0687 24.3769 35.1263 26.2438 34.625 28.248Z" fill="#5EA33B"/>
</svg>
