<svg width="159" height="64" viewBox="0 0 159 64" fill="none" xmlns="http://www.w3.org/2000/svg">
<path d="M77.0688 37.0737V24.7319H78.9506C83.0564 24.7319 84.7671 27.0048 84.7671 30.7684V30.9639C84.7671 34.8253 82.8853 37.0737 78.975 37.0737H77.0688ZM73.8184 39.6398H79.0728C85.207 39.6398 88.1641 36.0228 88.1641 30.9395V30.7195C88.1641 25.6362 85.207 22.1658 79.1217 22.1658H73.8184V39.6398Z" fill="#1B1B18"/>
<path d="M94.9794 39.8842C96.739 39.8842 98.3276 38.7844 99.0363 37.538V39.6398H101.993V26.8581H99.0363V28.7888C98.3031 27.518 97.0567 26.5893 95.1016 26.5893C92.0223 26.5893 89.4562 29.1798 89.4562 33.2612V33.4567C89.4562 37.6113 91.9978 39.8842 94.9794 39.8842ZM95.6881 37.538C93.9041 37.538 92.4866 36.1939 92.4866 33.3834V33.1879C92.4866 30.4262 93.8063 28.911 95.8348 28.911C97.8144 28.911 99.1341 30.2796 99.1341 33.1145V33.3101C99.1341 36.1694 97.5944 37.538 95.6881 37.538Z" fill="#1B1B18"/>
<path d="M110.377 39.8842C113.848 39.8842 116.072 37.8069 116.291 34.8742H113.579C113.408 36.6827 112.064 37.6113 110.499 37.6113C108.324 37.6113 106.956 36.145 106.956 33.3589V33.1634C106.956 30.524 108.398 28.9599 110.426 28.9599C111.99 28.9599 113.114 29.6686 113.359 31.3794H116.218C115.876 27.8601 113.212 26.5893 110.377 26.5893C106.809 26.5893 103.925 29.1554 103.925 33.2123V33.4078C103.925 37.4891 106.711 39.8842 110.377 39.8842Z" fill="#1B1B18"/>
<path d="M122.797 39.8842C124.557 39.8842 126.145 38.7844 126.854 37.538V39.6398H129.811V26.8581H126.854V28.7888C126.121 27.518 124.874 26.5893 122.919 26.5893C119.84 26.5893 117.274 29.1798 117.274 33.2612V33.4567C117.274 37.6113 119.815 39.8842 122.797 39.8842ZM123.506 37.538C121.722 37.538 120.304 36.1939 120.304 33.3834V33.1879C120.304 30.4262 121.624 28.911 123.652 28.911C125.632 28.911 126.952 30.2796 126.952 33.1145V33.3101C126.952 36.1694 125.412 37.538 123.506 37.538Z" fill="#1B1B18"/>
<path d="M137.388 39.8842C139.27 39.8842 140.908 38.76 141.592 37.4891V39.6398H144.549V20.9438H141.592V28.8133C140.883 27.5424 139.588 26.5893 137.511 26.5893C134.187 26.5893 131.767 29.1798 131.767 33.2612V33.4567C131.767 37.6113 134.187 39.8842 137.388 39.8842ZM138.122 37.538C136.215 37.538 134.798 36.1939 134.798 33.3834V33.1879C134.798 30.4262 136.069 28.911 138.244 28.911C140.394 28.911 141.69 30.304 141.69 33.1145V33.3101C141.69 36.1694 140.174 37.538 138.122 37.538Z" fill="#1B1B18"/>
<path d="M152.952 39.8842C156.226 39.8842 158.401 38.4178 158.817 35.7295H155.958C155.738 36.9759 154.809 37.6847 153.025 37.6847C150.825 37.6847 149.603 36.3161 149.506 33.8966H158.866V33.0412C158.866 28.4711 156.006 26.5893 152.829 26.5893C149.188 26.5893 146.475 29.2287 146.475 33.1879V33.3834C146.475 37.4158 149.188 39.8842 152.952 39.8842ZM149.554 31.917C149.848 29.9375 151.045 28.7399 152.829 28.7399C154.662 28.7399 155.786 29.7175 155.933 31.917H149.554Z" fill="#1B1B18"/>
<path fill-rule="evenodd" clip-rule="evenodd" d="M32.1001 2.90215C16.0298 2.90215 3.00225 15.9297 3.00225 32C3.00225 48.0703 16.0298 61.0979 32.1001 61.0979C48.1704 61.0979 61.1979 48.0703 61.1979 32C61.1979 15.9297 48.1704 2.90215 32.1001 2.90215ZM0.100098 32C0.100098 14.3269 14.427 0 32.1001 0C49.7732 0 64.1001 14.3269 64.1001 32C64.1001 49.6731 49.7732 64 32.1001 64C14.427 64 0.100098 49.6731 0.100098 32Z" fill="#1B1B18"/>
<path fill-rule="evenodd" clip-rule="evenodd" d="M41.6029 11.0476C38.9159 5.67357 35.4723 2.90215 32.1001 2.90215V0C37.1638 0 41.3574 4.06718 44.1987 9.74971C47.0833 15.519 48.8256 23.3877 48.8256 32C48.8256 40.6123 47.0833 48.481 44.1987 54.2503C41.3574 59.9328 37.1638 64 32.1001 64V61.0979C35.4723 61.0979 38.9159 58.3264 41.6029 52.9524C44.2465 47.6652 45.9235 40.2594 45.9235 32C45.9235 23.7406 44.2465 16.3348 41.6029 11.0476Z" fill="#1B1B18"/>
<path fill-rule="evenodd" clip-rule="evenodd" d="M47.1403 11.2693C43.2002 6.01589 37.8678 2.90215 32.1001 2.90215V0C38.9861 0 45.1096 3.72486 49.462 9.528C53.814 15.3307 56.4629 23.2805 56.4629 32C56.4629 40.7195 53.814 48.6693 49.462 54.472C45.1096 60.2751 38.9861 64 32.1001 64V61.0979C37.8678 61.0979 43.2002 57.9841 47.1403 52.7307C51.0806 47.4769 53.5607 40.1522 53.5607 32C53.5607 23.8478 51.0806 16.5231 47.1403 11.2693Z" fill="#1B1B18"/>
</svg>
